<?xml version="1.0" encoding="UTF-8"?>
<!DOCTYPE svg PUBLIC "-//W3C//DTD SVG 1.1//EN" "http://www.w3.org/Graphics/SVG/1.1/DTD/svg11.dtd">
<!-- Creator: CorelDRAW -->
<svg xmlns="http://www.w3.org/2000/svg" xml:space="preserve" width="25.4846mm" height="24.892mm" version="1.1" style="shape-rendering:geometricPrecision; text-rendering:geometricPrecision; image-rendering:optimizeQuality; fill-rule:evenodd; clip-rule:evenodd"
viewBox="0 0 204.99 200.23"
 xmlns:xlink="http://www.w3.org/1999/xlink"
 xmlns:xodm="http://www.corel.com/coreldraw/odm/2003">
 <defs>
  <style type="text/css">
   <![CDATA[
    .fil1 {fill:white}
    .fil0 {fill:white;fill-rule:nonzero}
   ]]>
  </style>
 </defs>
 <g id="Capa_x0020_1">
  <metadata id="CorelCorpID_0Corel-Layer"/>
  <path class="fil0" d="M69.47 13.62c-3.76,0 -6.81,-3.05 -6.81,-6.81 0,-3.76 3.05,-6.81 6.81,-6.81l128.71 0c3.76,0 6.81,3.05 6.81,6.81l0 186.61c0,3.76 -3.05,6.81 -6.81,6.81l-128.04 0c-3.76,0 -6.81,-3.05 -6.81,-6.81 0,-3.76 3.05,-6.81 6.81,-6.81l121.23 0 0 -172.98 -121.9 0z"/>
  <polygon class="fil1" points="40.86,91.26 70.83,60.61 51.08,41.54 -0,99.43 51.76,158 70.83,138.25 40.86,108.29 170.26,108.29 170.26,91.94 "/>
 </g>
</svg>
