<svg width="22" height="33" viewBox="0 0 22 33" fill="none" xmlns="http://www.w3.org/2000/svg">
<g clip-path="url(#clip0_21_8)">
<path fill-rule="evenodd" clip-rule="evenodd" d="M8.32071 21.7532C8.32071 19.4984 10.6333 18.9497 11.806 20.0423C12.68 20.8567 12.7023 22.3813 11.9689 23.0967C11.7786 23.2823 11.6125 23.2529 11.5606 23.5492C11.3887 24.5341 12.1381 26.7974 10.3679 26.7974C9.08562 26.7974 9.31078 25.172 9.3113 24.3416C9.31203 23.2969 9.42118 23.5551 8.86389 22.9992C8.61432 22.7502 8.32071 22.2212 8.32071 21.7531V21.7532ZM5.81132 9.60693C5.81132 4.94378 11.4762 3.31299 13.9915 6.49587C14.7174 7.41445 15.0566 8.30109 15.0566 9.60693V13.5229H5.81132V9.60693ZM2.24529 13.5893C1.65725 13.902 1.36489 13.8589 0.741643 14.5339C0.406393 14.8969 0 15.6361 0 16.3106V29.3861C0 30.8092 1.56024 32.1737 2.97177 32.1737H18.0283C18.3945 32.1737 18.9746 31.9987 19.2413 31.8663C20.2964 31.3426 21 30.3389 21 28.9878V16.7088C21 15.809 20.7218 15.2022 20.3129 14.6781C20.1134 14.4224 19.8842 14.2236 19.6242 14.0429C19.3243 13.8345 19.0011 13.7555 18.6888 13.5893L18.68 8.5538C18.3434 5.32844 16.0163 2.54754 13.0025 1.58293C10.6692 0.836163 8.25892 1.1132 6.16942 2.40025C3.98925 3.74305 2.6039 5.90944 2.26253 8.56226C2.20083 9.04159 2.24539 12.7726 2.24539 13.5893H2.24529Z" fill="black"/>
</g>
<defs>
<clipPath id="clip0_21_8">
<rect width="22" height="32" fill="white" transform="translate(0 0.173737)"/>
</clipPath>
</defs>
</svg>
