<?xml version="1.0" encoding="UTF-8"?>
<!DOCTYPE svg PUBLIC "-//W3C//DTD SVG 1.1//EN" "http://www.w3.org/Graphics/SVG/1.1/DTD/svg11.dtd">
<!-- Creator: CorelDRAW -->
<svg xmlns="http://www.w3.org/2000/svg" xml:space="preserve" width="33.9906mm" height="33.9906mm" version="1.1" style="shape-rendering:geometricPrecision; text-rendering:geometricPrecision; image-rendering:optimizeQuality; fill-rule:evenodd; clip-rule:evenodd"
viewBox="0 0 3399.06 3399.06"
 xmlns:xlink="http://www.w3.org/1999/xlink"
 xmlns:xodm="http://www.corel.com/coreldraw/odm/2003">
 <defs>
  <style type="text/css">
   <![CDATA[
    .fil0 {fill:white;fill-rule:nonzero}
   ]]>
  </style>
 </defs>
 <g id="Capa_x0020_1">
  <metadata id="CorelCorpID_0Corel-Layer"/>
  <g id="_2271756022112">
   <path class="fil0" d="M3059.13 2209.43c0,-93.85 76.12,-169.97 169.96,-169.97 93.85,0 169.97,76.12 169.97,169.97l0 679.8c0,140.29 -57.17,267.54 -149.35,359.78l0 0.71c-92.24,92.24 -219.81,149.34 -360.55,149.34l-2379.33 -0.57c-141.12,-0.07 -268.63,-56.92 -360.49,-148.77 -92.24,-92.24 -149.34,-219.82 -149.34,-360.55l0 -679.8c0,-93.85 76.11,-169.97 169.96,-169.97 93.85,0 169.97,76.12 169.97,169.97l0 679.8c0,46.89 19.08,89.48 49.78,120.18 31.15,31.15 73.74,50.49 120.12,50.49l2379.33 -0.07c46.89,-0.64 89.48,-19.72 120.19,-50.42 30.83,-30.32 49.78,-73.04 49.78,-120.12l0 -679.8z"/>
   <path class="fil0" d="M729.58 1479.85c-66.36,-66.36 -66.36,-174.01 0,-240.37 66.35,-66.35 174.01,-66.35 240.37,0l729.51 729.58 729.59 -729.58c66.35,-66.35 174.01,-66.35 240.36,0 66.36,66.36 66.36,174.01 0,240.37l-849.76 849.76c-66.36,66.36 -174.02,66.36 -240.37,0l-849.7 -849.76z"/>
   <path class="fil0" d="M1869.43 2209.43c0,93.85 -76.12,169.97 -169.97,169.97 -93.84,0 -169.96,-76.12 -169.96,-169.97l0 -2039.46c0,-93.85 76.12,-169.97 169.96,-169.97 93.85,0 169.97,76.12 169.97,169.97l0 2039.46z"/>
  </g>
 </g>
</svg>
