<?xml version="1.0" encoding="UTF-8"?>
<!DOCTYPE svg PUBLIC "-//W3C//DTD SVG 1.1//EN" "http://www.w3.org/Graphics/SVG/1.1/DTD/svg11.dtd">
<!-- Creator: CorelDRAW -->
<svg xmlns="http://www.w3.org/2000/svg" xml:space="preserve" width="106.481mm" height="106.592mm" version="1.1" style="shape-rendering:geometricPrecision; text-rendering:geometricPrecision; image-rendering:optimizeQuality; fill-rule:evenodd; clip-rule:evenodd"
viewBox="0 0 10648.12 10659.19"
 xmlns:xlink="http://www.w3.org/1999/xlink"
 xmlns:xodm="http://www.corel.com/coreldraw/odm/2003">
 <defs>
  <style type="text/css">
   <![CDATA[
    .fil0 {fill:white}
   ]]>
  </style>
 </defs>
 <g id="Capa_x0020_1">
  <metadata id="CorelCorpID_0Corel-Layer"/>
  <g id="_2271749541776">
   <path class="fil0" d="M8535.11 5035.72l-603.17 -610.15c-467.1,487.01 -950.24,949.79 -1426.22,1425.78 -483.66,483.66 -952.11,952.23 -1437.07,1434.5 -485.08,482.39 -953.01,951.14 -1436.62,1435.02 -217.52,217.62 -179.86,226.77 -422.54,294.76 -337.07,94.39 -1509.12,470.76 -1679.43,479.09l-362.76 -363.55c7.98,-170.68 245.2,-894.88 310.82,-1107.03 58.53,-189.29 109.1,-365.98 163.27,-555.44 90.25,-315.6 80.38,-270.79 264.53,-452.76 486.63,-480.92 950.16,-954.29 1437.64,-1434.03l2155.41 -2151.97c229.63,-230.71 509.17,-478.72 713.52,-716.41l-541.47 -548.53 -1782.45 1766.04c-302.83,298.31 -590.77,581.32 -895.17,878.51l-883.29 890.24c-303.48,297.6 -589.7,583.3 -894.87,878.72 -228.04,220.76 -213.98,191.73 -321.99,564.44 -68.21,235.4 -138.46,450.42 -202.38,685.29l-603.07 2056.7c-76.18,251.61 -164.17,466.38 28.29,660.4 186.34,187.87 413.53,103.3 660.6,28.48 389.77,-118.01 2933.87,-846.39 3072.95,-916.97 123.13,-62.47 972.24,-948.89 1121.1,-1096.26 598.93,-592.89 1186.44,-1169.67 1790.3,-1757.21 77.69,-75.56 134.72,-154.97 212.41,-230.86 364.9,-356.59 1284.37,-1232.49 1561.66,-1536.8z"/>
   <path class="fil0" d="M2106.86 7731.29l659.01 155.74 89.18 594.09c121.5,-62.42 2196.56,-2174.88 2296.66,-2273.49 387.92,-382.09 754.27,-755.79 1140.8,-1139.6 107.76,-106.99 1089.35,-1045.68 1130.65,-1159.35l-734.97 -733.85c-143.5,78.68 -4096.02,4107.29 -4581.33,4556.46z"/>
   <path class="fil0" d="M7215.18 706.78c38.15,69.43 2671.56,2703.78 2739.67,2740.94 247.64,-256.22 293.11,-267.12 506.81,-524.01 154.67,-185.92 233.9,-510.92 156.29,-810.56 -101.4,-391.51 -618.43,-824 -931.94,-1137.53 -177.61,-177.59 -339.74,-339.69 -517.33,-517.31 -398.3,-398.34 -880.59,-656.66 -1433.8,-261.58 -174.23,124.44 -365.06,362.06 -519.7,510.05z"/>
   <path class="fil0" d="M6094.21 1697.5c50.7,84.84 2802.36,2830.79 2871.59,2869.92l634.1 -608.95c-63.82,-112.08 -569.48,-585.29 -701.45,-717.27l-1974.23 -1974.22c-100.36,-100.43 -111.25,-141.51 -208.76,-166.99 -90.33,133.02 -199.76,201.55 -310.17,301.83l-311.08 295.68z"/>
  </g>
 </g>
</svg>
