<?xml version="1.0" encoding="UTF-8"?>
<!DOCTYPE svg PUBLIC "-//W3C//DTD SVG 1.1//EN" "http://www.w3.org/Graphics/SVG/1.1/DTD/svg11.dtd">
<!-- Creator: CorelDRAW -->
<svg xmlns="http://www.w3.org/2000/svg" xml:space="preserve" width="5.2916mm" height="6.35mm" version="1.1" style="shape-rendering:geometricPrecision; text-rendering:geometricPrecision; image-rendering:optimizeQuality; fill-rule:evenodd; clip-rule:evenodd"
viewBox="0 0 22.57 27.08"
 xmlns:xlink="http://www.w3.org/1999/xlink"
 xmlns:xodm="http://www.corel.com/coreldraw/odm/2003">
 <defs>
  <style type="text/css">
   <![CDATA[
    .fil0 {fill:white;fill-rule:nonzero}
   ]]>
  </style>
 </defs>
 <g id="Capa_x0020_1">
  <metadata id="CorelCorpID_0Corel-Layer"/>
  <path class="fil0" d="M8.57 0l-0.35 0.32 -0.81 0.81 -7.41 0 0 2.26 1.13 0 0 20.31c0,1.86 1.53,3.39 3.39,3.39l13.54 0c1.86,0 3.39,-1.53 3.39,-3.39l0 -20.31 1.13 0 0 -2.26 -7.41 0 -0.81 -0.81 -0.35 -0.32 -0.46 0 -4.51 0 -0.46 0zm0.95 2.26l3.53 0 0.81 0.81 0.35 0.32 0.46 0 4.51 0 0 20.31c0,0.63 -0.5,1.13 -1.13,1.13l-13.54 0c-0.63,0 -1.13,-0.5 -1.13,-1.13l0 -20.31 4.51 0 0.46 0 0.35 -0.32 0.81 -0.81zm-3.88 5.64l0 12.41 2.26 0 0 -12.41 -2.26 0zm4.51 0l0 12.41 2.26 0 0 -12.41 -2.26 0zm4.51 0l0 12.41 2.26 0 0 -12.41 -2.26 0z" color="#000"/>
 </g>
</svg>
