<svg width="612" height="612" viewBox="0 0 612 612" fill="none" xmlns="http://www.w3.org/2000/svg">
<path d="M363.375 191.25C373.932 191.25 382.5 182.682 382.5 172.125V95.625C382.5 85.068 373.932 76.5 363.375 76.5C352.818 76.5 344.25 85.068 344.25 95.625V172.125C344.25 182.682 352.818 191.25 363.375 191.25ZM535.5 0H76.5C34.253 0 0 34.253 0 76.5V535.5C0 577.747 34.253 612 76.5 612H535.5C577.747 612 612 577.747 612 535.5V76.5C612 34.253 577.747 0 535.5 0ZM153 38.25H459V210.375C459 220.932 450.432 229.5 439.875 229.5H172.125C161.568 229.5 153 220.932 153 210.375V38.25ZM573.75 535.5C573.75 556.633 556.633 573.75 535.5 573.75H76.5C55.367 573.75 38.25 556.633 38.25 535.5V76.5C38.25 55.367 55.367 38.25 76.5 38.25H114.75V229.5C114.75 250.614 131.867 267.75 153 267.75H459C480.133 267.75 497.25 250.614 497.25 229.5V38.25H535.5C556.633 38.25 573.75 55.386 573.75 76.5V535.5Z" fill="white"/>
</svg>
