<?xml version="1.0" encoding="UTF-8"?>
<!DOCTYPE svg PUBLIC "-//W3C//DTD SVG 1.1//EN" "http://www.w3.org/Graphics/SVG/1.1/DTD/svg11.dtd">
<!-- Creator: CorelDRAW -->
<svg xmlns="http://www.w3.org/2000/svg" xml:space="preserve" width="11.653mm" height="11.653mm" version="1.1" style="shape-rendering:geometricPrecision; text-rendering:geometricPrecision; image-rendering:optimizeQuality; fill-rule:evenodd; clip-rule:evenodd"
viewBox="0 0 97.88 97.88"
 xmlns:xlink="http://www.w3.org/1999/xlink"
 xmlns:xodm="http://www.corel.com/coreldraw/odm/2003">
 <defs>
  <style type="text/css">
   <![CDATA[
    .fil0 {fill:white;fill-rule:nonzero}
   ]]>
  </style>
 </defs>
 <g id="Capa_x0020_1">
  <metadata id="CorelCorpID_0Corel-Layer"/>
  <path class="fil0" d="M20.39 0l0 4.08 0 24.47 -8.16 0c-6.71,0 -12.23,5.53 -12.23,12.24l0 36.71 0 4.08 4.08 0 16.31 0 0 12.23 0 4.08 4.08 0 48.94 0 4.08 0 0 -4.08 0 -12.23 16.31 0 4.08 0 0 -4.08 0 -36.71c0,-6.71 -5.53,-12.24 -12.23,-12.24l-8.16 0 0 -24.47 0 -4.08 -4.08 0 -48.94 0 -4.08 0zm8.16 8.16l40.78 0 0 20.39 -40.78 0 0 -20.39zm-16.31 28.55l73.41 0c2.3,0 4.08,1.77 4.08,4.08l0 32.63 -12.24 0 0 -12.24 0 -4.08 -4.08 0 -48.94 0 -4.08 0 0 4.08 0 12.24 -12.24 0 0 -32.63c0,-2.3 1.77,-4.08 4.08,-4.08zm4.08 4.08c-2.25,0 -4.08,1.83 -4.08,4.08 0,2.25 1.83,4.08 4.08,4.08 2.25,0 4.08,-1.83 4.08,-4.08 0,-2.25 -1.83,-4.08 -4.08,-4.08zm12.24 24.47l40.78 0 0 24.47 -40.78 0 0 -24.47z" color="#000"/>
 </g>
</svg>
