<svg width="21" height="26" viewBox="0 0 21 26" fill="none" xmlns="http://www.w3.org/2000/svg">
<g clip-path="url(#clip0_19_15)">
<path fill-rule="evenodd" clip-rule="evenodd" d="M0.00925233 25.7446L20.9889 25.7466C21.0159 25.0918 20.9943 23.7001 20.9191 23.0565C20.7059 21.2292 19.9958 19.5311 18.9001 18.0992C18.8002 17.9686 18.696 17.8352 18.5864 17.7109C18.468 17.5766 18.3653 17.4674 18.2551 17.3402C18.155 17.2247 18.0227 17.1014 17.9143 16.9956C16.9565 16.0612 15.7722 15.2658 14.4951 14.7791C14.1433 14.6449 14.179 14.6188 13.9963 14.7008C11.7392 15.7142 9.2712 15.7145 7.01296 14.7063C6.84096 14.6295 6.86886 14.6289 6.51483 14.7734C5.57748 15.1561 4.36477 15.8315 3.65209 16.4753C2.96822 17.0931 2.69929 17.3242 2.11115 18.0784C0.704565 19.8822 0.00584049 22.0541 0.00734571 24.3577C0.00764676 24.81 -0.0104159 25.2965 0.00925233 25.7446Z" fill="black"/>
<path fill-rule="evenodd" clip-rule="evenodd" d="M10.0776 0.760947C6.46847 0.988934 3.48602 3.98569 3.72806 7.79494C3.78857 8.74735 4.06252 9.64588 4.45408 10.3821C4.79667 11.0262 5.19596 11.5654 5.70803 12.0569C5.77868 12.1247 5.84671 12.2028 5.92288 12.264L6.37896 12.6345C6.86404 13.0009 7.42078 13.3042 8.01484 13.5372C8.8682 13.8718 9.91062 14.0487 10.9355 13.9816C14.5322 13.7464 17.5125 10.7566 17.2687 6.9453C17.045 3.4478 13.9473 0.516598 10.0775 0.761045L10.0776 0.760947Z" fill="black"/>
</g>
<defs>
<clipPath id="clip0_19_15">
<rect width="21" height="25" fill="white" transform="translate(0 0.746643)"/>
</clipPath>
</defs>
</svg>
